<svg xmlns="http://www.w3.org/2000/svg" version="1.0" width="860.000000pt" height="900.000000pt" viewBox="0 0 860.000000 900.000000" preserveAspectRatio="xMidYMid meet">

<g transform="translate(0.000000,900.000000) scale(0.100000,-0.100000)" fill="#2b8bfc" stroke="none">
<path d="M4145 8584 c-22 -2 -103 -8 -180 -14 -664 -50 -1325 -283 -1895 -669 -1101 -744 -1754 -1975 -1754 -3306 0 -507 88 -980 271 -1450 52 -134 60 -153 158 -349 344 -688 898 -1272 1573 -1660 125 -72 413 -216 431 -216 5 0 30 -9 56 -21 119 -52 377 -137 525 -173 787 -187 1529 -157 2255 91 701 240 1311 659 1786 1228 596 713 924 1620 923 2555 0 329 -35 612 -120 970 -36 148 -121 406 -173 525 -12 26 -21 51 -21 56 0 18 -144 306 -216 431 -388 675 -972 1229 -1660 1573 -196 98 -215 106 -349 158 -347 135 -698 219 -1060 253 -154 14 -478 25 -550 18z m907 -326 c71 -103 99 -171 124 -298 25 -131 14 -294 -31 -445 -41 -140 -156 -346 -284 -510 -76 -98 -357 -375 -476 -470 -151 -120 -151 -121 -280 -250 -164 -163 -247 -288 -297 -441 -33 -100 -32 -298 0 -399 37 -114 107 -247 209 -398 265 -391 320 -481 311 -508 -5 -15 -101 74 -343 316 -232 232 -284 291 -389 444 -96 140 -147 252 -172 376 -27 135 -11 273 43 383 86 171 308 399 619 638 30 23 71 55 91 71 21 17 88 70 148 118 409 327 604 575 680 866 32 124 35 359 6 481 -16 67 -17 88 -5 88 2 0 22 -28 46 -62z m798 -1345 c0 -5 -24 -21 -53 -37 -148 -83 -498 -315 -644 -427 -136 -104 -317 -286 -363 -364 -46 -78 -79 -178 -80 -241 0 -50 31 -158 65 -225 24 -47 75 -124 172 -261 118 -165 145 -228 151 -350 5 -107 -8 -161 -60 -258 -61 -112 -165 -226 -299 -327 -83 -63 -186 -126 -199 -121 -5 2 12 26 39 53 111 115 163 232 163 364 0 126 -34 202 -151 340 -165 195 -255 398 -267 601 -21 333 212 644 681 913 138 79 368 184 550 252 73 28 272 94 283 94 6 1 12 -2 12 -6z m561 -2319 c296 -56 482 -292 439 -557 -44 -271 -307 -515 -735 -684 -151 -59 -351 -121 -361 -110 -9 9 19 45 45 57 13 6 82 46 154 88 191 114 350 246 467 388 117 142 162 333 110 465 -57 144 -197 248 -360 265 -52 6 -191 -21 -242 -48 -32 -16 -20 18 17 51 43 38 88 57 175 76 133 29 179 30 291 9z m-2873 -66 c-3 -7 -13 -14 -24 -16 -10 -1 -77 -19 -149 -39 -272 -75 -477 -160 -519 -216 -17 -23 -17 -28 -5 -43 120 -144 1350 -146 2424 -3 202 27 465 67 504 76 51 13 13 -19 -74 -60 -50 -23 -103 -51 -120 -61 -16 -11 -47 -30 -68 -43 -21 -14 -66 -30 -100 -38 -34 -7 -82 -18 -107 -23 -701 -163 -2027 -194 -2670 -62 -204 42 -315 106 -295 169 27 87 385 243 735 322 169 38 476 62 468 37z m-288 -776 c0 -4 -15 -23 -34 -41 -75 -72 -70 -134 12 -169 72 -31 229 -51 542 -68 465 -26 875 4 1361 98 l106 21 61 -48 c34 -26 101 -67 148 -90 l86 -43 -63 -20 c-209 -68 -602 -141 -959 -179 -237 -25 -720 -25 -925 0 -493 61 -746 171 -711 312 15 58 115 136 236 185 30 12 69 28 85 35 35 16 55 18 55 7z m143 -782 c-72 -65 -45 -114 79 -144 137 -32 442 -56 706 -56 202 0 280 5 432 24 192 25 295 41 367 57 40 9 48 6 155 -50 62 -32 149 -72 193 -89 44 -16 81 -34 83 -40 1 -5 -23 -19 -55 -32 -32 -12 -74 -28 -93 -36 -180 -70 -505 -139 -780 -165 -614 -59 -1291 81 -1390 287 -19 37 -20 49 -10 78 16 50 65 94 148 133 78 36 184 73 192 66 3 -3 -10 -18 -27 -33z m-549 -483 c65 -20 57 -37 -17 -37 -112 0 -335 -56 -463 -116 -226 -106 -183 -162 186 -248 329 -77 835 -116 1485 -116 296 0 995 24 1026 34 8 3 82 10 164 16 302 21 682 78 885 132 175 46 257 85 309 144 38 42 39 68 6 117 -32 46 -17 48 47 8 71 -45 94 -102 64 -159 -69 -132 -384 -260 -876 -356 -421 -82 -799 -121 -1322 -137 -615 -20 -1306 14 -1843 88 -60 8 -141 19 -180 24 -97 12 -279 45 -341 63 -205 57 -247 159 -116 276 55 49 203 133 292 165 137 49 326 100 400 108 79 9 258 5 294 -6z m4002 -433 c-14 -107 -135 -226 -315 -310 -487 -230 -1487 -339 -2682 -294 -493 18 -916 83 -1101 167 -57 26 -82 61 -35 50 107 -27 381 -59 712 -84 322 -25 1038 -25 1360 0 364 28 681 64 890 102 353 64 532 105 705 161 117 39 261 99 302 126 14 10 30 18 35 18 6 0 36 25 69 55 32 30 61 54 63 55 2 0 1 -21 -3 -46z" fill="#2b8bfc"/>
</g>
</svg>