<svg xmlns="http://www.w3.org/2000/svg" version="1.0" width="360.000000pt" height="360.000000pt" viewBox="0 0 360.000000 360.000000" preserveAspectRatio="xMidYMid meet">

<g transform="translate(0.000000,360.000000) scale(0.100000,-0.100000)" fill="#2b8bfc" stroke="none">
<path d="M1695 3198 c-336 -23 -641 -163 -886 -407 -294 -295 -434 -670 -407 -1091 41 -646 531 -1181 1178 -1286 112 -18 308 -20 418 -4 652 95 1155 634 1200 1285 29 420 -113 801 -407 1096 -295 294 -676 436 -1096 407z m505 -703 c266 -153 361 -212 378 -237 22 -32 22 -33 22 -454 l0 -421 -23 -34 c-17 -26 -97 -77 -337 -217 -375 -219 -410 -236 -455 -229 -32 5 -295 153 -295 166 1 3 28 18 61 33 l60 27 90 -54 c49 -30 93 -55 97 -55 4 0 158 87 342 193 l335 193 3 390 2 389 -339 198 -340 198 -338 -193 -338 -194 -3 -383 c-1 -263 1 -388 9 -397 5 -7 55 -38 109 -68 79 -45 107 -56 143 -56 37 0 49 5 66 26 20 26 21 37 21 419 0 437 -5 405 70 405 20 0 43 -6 49 -14 9 -11 11 -118 9 -418 -3 -394 -4 -404 -25 -448 -13 -25 -38 -55 -57 -68 -46 -32 -130 -40 -194 -19 -70 23 -257 133 -287 168 l-25 31 0 427 c0 428 0 428 23 461 15 22 74 62 187 127 546 315 542 313 585 313 34 0 93 -30 395 -205z m-63 -361 c87 -24 150 -95 167 -186 6 -34 4 -38 -17 -43 -13 -4 -41 -5 -62 -3 -33 3 -40 7 -48 33 -24 77 -108 113 -234 102 -97 -9 -133 -34 -133 -91 0 -44 30 -56 209 -87 264 -44 306 -73 306 -211 0 -70 -3 -79 -30 -115 -18 -21 -57 -51 -90 -68 -55 -27 -70 -30 -179 -34 -136 -4 -215 12 -280 57 -51 35 -88 104 -84 157 l3 40 54 0 53 0 17 -44 c9 -24 27 -52 41 -62 36 -27 133 -42 218 -35 110 9 152 38 152 104 0 50 -56 72 -231 92 -134 15 -194 34 -242 79 -37 35 -41 43 -45 99 -2 34 -2 73 2 86 10 39 66 97 114 118 80 36 237 41 339 12z" fill="#2b8bfc"/>
</g>
</svg>