<svg xmlns="http://www.w3.org/2000/svg" version="1.0" width="512.000000pt" height="512.000000pt" viewBox="0 0 512.000000 512.000000" preserveAspectRatio="xMidYMid meet">

<g transform="translate(0.000000,512.000000) scale(0.100000,-0.100000)" fill="#2b8bfc" stroke="none">
<path d="M2365 4549 c-274 -26 -595 -132 -830 -274 -336 -204 -619 -515 -781 -862 -506 -1080 35 -2357 1161 -2743 660 -226 1394 -88 1930 362 415 349 661 831 707 1386 20 251 -17 537 -102 787 -300 876 -1160 1431 -2085 1344z m235 -1246 c0 -10 -12 -74 -25 -143 -14 -69 -25 -126 -25 -127 0 -2 42 -3 93 -3 131 -1 280 -17 324 -35 79 -33 123 -98 123 -181 0 -38 -88 -523 -106 -586 -5 -16 -20 -18 -125 -18 -79 0 -119 4 -119 11 0 6 23 130 52 276 47 243 50 268 37 292 -8 14 -30 31 -49 38 -49 17 -266 17 -272 1 -3 -7 -31 -149 -64 -315 l-58 -303 -122 0 -121 0 27 138 c16 75 65 325 110 555 l82 417 119 0 c107 0 119 -2 119 -17z m-656 -302 c81 -32 149 -101 170 -172 68 -227 -72 -497 -304 -585 -34 -13 -92 -19 -239 -23 l-195 -6 -23 -125 c-12 -69 -25 -135 -28 -147 -5 -22 -9 -23 -126 -23 l-121 0 6 28 c4 15 51 259 106 542 55 283 102 521 105 528 4 11 61 13 297 10 280 -4 296 -5 352 -27z m1933 6 c154 -51 226 -194 194 -383 -30 -169 -153 -320 -311 -380 -34 -13 -92 -19 -240 -23 l-194 -6 -22 -110 c-12 -60 -25 -127 -28 -147 l-7 -38 -119 0 c-66 0 -120 4 -120 8 0 4 47 250 105 546 58 296 105 543 105 548 0 6 114 8 293 6 242 -3 301 -7 344 -21z" fill="#2b8bfc"/>
<path d="M1500 2848 c0 -1 -20 -106 -44 -232 l-43 -228 131 4 c115 3 138 7 188 30 39 18 64 38 82 65 55 84 81 218 53 284 -24 58 -67 73 -229 77 -76 2 -138 2 -138 0z" fill="#2b8bfc"/>
<path d="M3446 2833 c-3 -10 -21 -106 -41 -213 -20 -107 -38 -203 -42 -214 -5 -17 2 -18 129 -14 121 3 139 6 190 31 72 36 111 91 134 194 20 93 14 146 -21 183 -36 38 -92 50 -229 50 -101 0 -115 -2 -120 -17z" fill="#2b8bfc"/>
</g>
</svg>